{"title":"Game Night 2018 Movies HDRip x264 5.1 with Sample ☻rDX☻","magnet":"magnet:?xt=urn:btih:613c6f65755633bea1bc28fa3757aa43ad2e3326&dn=Game+Night+2018+Movies+HDRip+x264+5.1+with+Sample+%E2%98%BBrDX%E2%98%BB&tr=udp%3A%2F%2Ftracker.leechers-paradise.org%3A6969&tr=udp%3A%2F%2Fzer0day.ch%3A1337&tr=udp%3A%2F%2Fopen.demonii.com%3A1337&tr=udp%3A%2F%2Ftracker.coppersurfer.tk%3A6969&tr=udp%3A%2F%2Fexodus.desync.com%3A6969","uploader":"basicssom","categoryP":"video","categoryS":"movies","size":"887873412","seeders":"2","leechers":"85","description":"----------------------------------------------------------------\r\nGame Night 2018 Movies HDRip x264 5.1 with Sample &#x263B;rDX&#x263B;\r\n\r\nSCREEN SHOTS &amp; POSTER:\r\n   <a href=\"\nhttp://iphonehosting.eu/2018/5/sale/index.html\" rel=\"nofollow\" target=\"_NEW\">\nhttp://iphonehosting.eu/2018/5/sale/index.html</a> <a href=\"\nhttp://iphonehosting.eu/2018/5/sale/1.html\" rel=\"nofollow\" target=\"_NEW\">\nhttp://iphonehosting.eu/2018/5/sale/1.html</a> <a href=\"\nhttp://iphonehosting.eu/2018/5/sale/2.html\" rel=\"nofollow\" target=\"_NEW\">\nhttp://iphonehosting.eu/2018/5/sale/2.html</a>   <a href=\"\nhttp://iphonehosting.eu/2018/5/sale/3.html\" rel=\"nofollow\" target=\"_NEW\">\nhttp://iphonehosting.eu/2018/5/sale/3.html</a>   <a href=\"\nhttp://iphonehosting.eu/2018/5/sale/4.html\" rel=\"nofollow\" target=\"_NEW\">\nhttp://iphonehosting.eu/2018/5/sale/4.html</a>   <a href=\"\nhttp://iphonehosting.eu/2018/5/sale/5.html\" rel=\"nofollow\" target=\"_NEW\">\nhttp://iphonehosting.eu/2018/5/sale/5.html</a>   <a href=\"\nhttp://iphonehosting.eu/2018/5/sale/6.html\" rel=\"nofollow\" target=\"_NEW\">\nhttp://iphonehosting.eu/2018/5/sale/6.html</a>   <a href=\"\nhttp://iphonehosting.eu/2018/5/sale/7.html\" rel=\"nofollow\" target=\"_NEW\">\nhttp://iphonehosting.eu/2018/5/sale/7.html</a>   <a href=\"\nhttp://iphonehosting.eu/2018/5/sale/8.html\" rel=\"nofollow\" target=\"_NEW\">\nhttp://iphonehosting.eu/2018/5/sale/8.html</a>   <a href=\"\nhttp://iphonehosting.eu/2018/5/sale/9.html\" rel=\"nofollow\" target=\"_NEW\">\nhttp://iphonehosting.eu/2018/5/sale/9.html</a>   <a href=\"\nhttp://iphonehosting.eu/2018/5/sale/10.html\" rel=\"nofollow\" target=\"_NEW\">\nhttp://iphonehosting.eu/2018/5/sale/10.html</a>\r\n\r\nFile size                                : 839 MiB\r\nDuration                                 : 1 h 40 min\r\nOverall bit rate mode                    : Constant\r\nOverall bit rate                         : 1 172 kb/s\r\nMovie name                               : Game Night 2018 Movies HDRip x264 5.1 &#x263B;rDX&#x263B;\r\n\r\nVideo\r\nID                                       : 2\r\nFormat                                   : AVC\r\nFormat/Info                              : Advanced Video Codec\r\nFormat profile                           : Main@L3\r\nFormat settings, CABAC                   : Yes\r\nFormat settings, ReFrames                : 2 frames\r\nFormat settings, GOP                     : M=1, N=12\r\nCodec ID                                 : V_MPEG4/ISO/AVC\r\nDuration                                 : 1 h 40 min\r\nBit rate mode                            : Constant\r\nBit rate                                 : 789 kb/s\r\nWidth                                    : 720 pixels\r\nHeight                                   : 304 pixels\r\nDisplay aspect ratio                     : 2.35:1\r\nFrame rate mode                          : Constant\r\nFrame rate                               : 23.976 FPS\r\nColor space                              : YUV\r\nChroma subsampling                       : 4:2:0\r\nBit depth                                : 8 bits\r\nScan type                                : Progressive\r\nBits/(Pixel*Frame)                       : 0.150\r\nStream size                              : 547 MiB (65%)\r\nTitle                                    : &#x263B;rDX&#x263B;\r\nDefault                                  : Yes\r\nForced                                   : No\r\n\r\nAudio\r\nID                                       : 1\r\nFormat                                   : AC-3\r\nFormat/Info                              : Audio Coding 3\r\nMode extension                           : CM (complete main)\r\nFormat settings, Endianness              : Big\r\nCodec ID                                 : A_AC3\r\nDuration                                 : 1 h 40 min\r\nBit rate mode                            : Constant\r\nBit rate                                 : 384 kb/s\r\nChannel(s)                               : 6 channels\r\nChannel positions                        : Front: L C R, Side: L R, LFE\r\nSampling rate                            : 48.0 kHz\r\nFrame rate                               : 31.250 FPS (1536 spf)\r\nBit depth                                : 16 bits\r\nCompression mode                         : Lossy\r\nStream size                              : 275 MiB (33%)\r\nTitle                                    : &#x263B;rDX&#x263B;\r\nDefault                                  : Yes\r\nForced                                   : No","last_updated":"2018-05-04T12:13:01.008Z","parsed":{"xt":"urn:btih:613c6f65755633bea1bc28fa3757aa43ad2e3326","dn":"Game Night 2018 Movies HDRip x264 5.1 with Sample ☻rDX☻","tr":["udp://exodus.desync.com:6969","udp://open.demonii.com:1337","udp://tracker.coppersurfer.tk:6969","udp://tracker.leechers-paradise.org:6969","udp://zer0day.ch:1337"],"infoHash":"613c6f65755633bea1bc28fa3757aa43ad2e3326","infoHashBuffer":{"type":"Buffer","data":[97,60,111,101,117,86,51,190,161,188,40,250,55,87,170,67,173,46,51,38]},"name":"Game Night 2018 Movies HDRip x264 5.1 with Sample ☻rDX☻","announce":["udp://exodus.desync.com:6969","udp://open.demonii.com:1337","udp://tracker.coppersurfer.tk:6969","udp://tracker.leechers-paradise.org:6969","udp://zer0day.ch:1337"],"urlList":[]}}